<?xml version="1.0" ?><svg enable-background="new 0 0 32 32" version="1.1" viewBox="0 0 32 32" xml:space="preserve" xmlns="http://www.w3.org/2000/svg" xmlns:xlink="http://www.w3.org/1999/xlink"><g id="Line"><g><path d="M30,2v28H2V2H30 M31,1H1v30h30V1L31,1z" fill="#414753"/><path d="M30,2v28H2V2H30 M31,1H1v30h30V1L31,1z" fill="#414753"/></g><g><path d="M15.365,16.221c-0.446-0.413-0.942-0.992-1.157-1.505c-0.033-0.066-0.099-0.232,0-0.364    c0.198-0.265,0.231-0.281,0.446-0.529c0.149-0.182,0.264-0.347,0.215-0.496l-0.744-1.935c-0.066-0.132-0.264-0.149-0.496-0.165    c-0.198,0-0.413,0-0.562,0.033c-0.331,0.116-1.008,1.009-1.091,1.654c-0.182,1.405,1.091,3.274,2.363,4.432    c1.273,1.174,3.24,2.282,4.628,1.968c0.645-0.149,1.471-0.893,1.537-1.24c0.033-0.149,0.017-0.363-0.017-0.562    c-0.016-0.231-0.066-0.397-0.199-0.463l-1.685-0.778c-0.149-0.083-0.298-0.017-0.446,0.166c-0.182,0.248-0.265,0.347-0.479,0.612    c-0.116,0.149-0.198,0.248-0.33,0.264c-0.149,0.033-0.347-0.05-0.38-0.05C16.439,17.081,15.828,16.634,15.365,16.221    L15.365,16.221z M9.812,22.158l0.959-2.431c-1.058-1.224-1.702-2.828-1.702-4.581c0-3.869,3.14-6.995,7.008-6.995    c3.867,0,6.991,3.126,6.991,6.995c0,3.87-3.124,7.011-6.991,7.011c-1.554,0-2.975-0.496-4.132-1.356L9.812,22.158z M8.638,19.776    l-1.322,5.292l4.727-2.15c1.207,0.628,2.578,0.992,4.033,0.992c4.826,0,8.743-3.919,8.743-8.764c0-4.828-3.917-8.747-8.743-8.747    c-4.843,0-8.76,3.919-8.76,8.747C7.316,16.849,7.812,18.437,8.638,19.776L8.638,19.776z" fill="#414753"/></g></g></svg>